<svg xmlns="http://www.w3.org/2000/svg" version="1.1" xmlns:xlink="http://www.w3.org/1999/xlink" xmlns:svgjs="http://svgjs.dev/svgjs" width="1500" height="1687" viewBox="0 0 1500 1687"><g transform="matrix(1,0,0,1,0.00011015625000254659,0)"><svg viewBox="0 0 320 360" data-background-color="#ffffff" preserveAspectRatio="xMidYMid meet" height="1687" width="1500" xmlns="http://www.w3.org/2000/svg" xmlns:xlink="http://www.w3.org/1999/xlink"><g id="tight-bounds" transform="matrix(1,0,0,1,0.000023499999997511622,0)"><svg viewBox="0 0 320 360" height="360" width="320"><g><svg></svg></g><g><svg viewBox="0 0 320 360" height="360" width="320"><g><path transform="translate(-74.99272,-51.79039) scale(4.65793,4.65793)" d="M20.6 59.9l0.8 1-0.4-1.3c-0.1-0.6-0.8 0.1-0.4 0.3M21.5 59.3c0.3 0.5 0.6 1 0.6 1.5 0 0.7 0.6 1 1.1 1.2-0.7-0.8-1.1-3-1.7-2.7M59.9 16.9c1.7 0 3.3-0.2 5.1 0.2 4.4 1.1 8.1 3.3 10.6 6.4l7 11.2c0.3 2.8 0.9 5.9 0.8 9.3 0.7 0 0.6-1 1.4-1.2-0.8 2-1.2 4.5-1.4 7.4-0.5-1.6 0-4 0.1-5.3-0.7 1.1-1.1 0.3-1.1-0.2 0.1-0.8-0.3-0.7-0.6-1-1.1-1-1.8-2.1-2.6-3.8 0.5-1.3 0.6-3.2-1-4.2-0.5-0.3-1.1-0.8-1.4-1.6-0.4-1.1-1.1-2.4-0.9-4.1 0.1-0.5-1.5 1.1-2.4 0.4-3.9-2.7-7.8-5.8-12.5-8.4-2.5 0-4.3-0.9-5.2-2-0.8-1-0.2-2.3 1-2.4 0.7 0 1.5-0.2 2.1 0.2 0.1-0.4 0.5-0.9 1-0.9M50 14.6l0.2 0.1c1 0.2 1.5 1.6 2.6 1.1 0 0.7 0.1 1.4-0.1 1.9-0.3 0.8-1.2 0.8-1.9 0.8-6.7-0.4-10.6 2.4-14.7 4.8-1.1 0.7-2.3 1.2-3.2 2.1-4.3 4-9 7.7-10.1 15.1l-0.9 8.2c-0.1 0.9-1.1 1.8-0.9 2.9l0.7 4.9c-0.7-0.7-1.1 0.2-0.9 0.6 0.1 0.3 0.5 1.3 1.1 0.4 0.8 1.5 1.6 4.4 2.7 5.7 3.4 4 7.8 7.6 11.4 11.2 0.9-0.2 1.6-0.2 1.8-0.8 0.3 0.6-0.3 1.2-0.8 1.3 1.6 1 3.4 1.9 5.8 2.1 3.1 0.2 6 0.7 8.7 1.4 1.4-0.4 2.8-0.6 4.3-0.7 0.5 0 0.8-0.8 1.4-1l0.1-1c0.6 0.9 0.5-0.3 0.1-0.9 0.7 0.6 0.9 1.1 1.2 1.5 0-0.3 0.8-1.4 0.8-0.1l0.2-1.3c0.3-0.2 0.4 1.1 0.7 0.2 0.3-0.9 0.9-0.2 1.5-0.5-0.2 0.4-0.1 1.2 0.6 0.7l0.8-0.7c0.5 1.2 1.3 0.7 1.7 0.5 4.4-2.8 8.8-6.1 13-9.4l-0.1 1.3 0.5-1.6c0.5 0.5 0.9 0.1 1.1-0.2 0.6-1 1.4-2 2.7-2.9-1.6 4.3-3.5 7.7-5.9 10.5l-1 1.2c0 0.7-0.2 1.6-1 1.7-0.4 0.1-1.2-0.2-1.8 0.4-0.3 0.4 0.7 1.2-0.1 0.6-0.7-0.5-1.4 0-2.2 0.2-0.6 0.2 0.4 0.8 0.6 1.2 0.2 0.4 0.4 0.8 0.3 1.3l-1.1-1.2c-1.3 0.7-2.1 2-3.2 3-0.5 0.4-0.3 1.1-0.3 1.7-0.7 0-1.5-0.2-1.9 0.2-0.3 0.4-0.2 1-0.2 1.6-1-0.1-1.1-1.6-2-1.3-0.9 0.2-1.9 0.3-2.7 0.8 0.6 1.2-1 0.5-0.8 0.7-1.5-0.9-2.8-1.6-4.4-1-3.4-1.1-7.6-0.6-10.7-0.2 0-0.5 0.1-1-0.1-1.1-0.2 0.5-0.8 0.3-0.7 0.3-1.9-1.3-3.8-2.1-5.8-3.2-1.8 0.2-3.5-0.7-4-1.2-1.4-1.3-3-0.6-4.3-0.9-2.8-0.7-3.8-3.6-4.1-5.6-0.2-1-1-1.4-1.3-1.3-1.3-4.2-3.3-8-4.9-11.9-0.4-1-0.3-2-0.3-3.1 0.5 0.2 1 0.1 0.9-0.6-0.5-3.3-1.7-5.8-3-8.2 0.7-3.4 0.8-7.4 2.4-10.4 1.4-2.7 4-4.1 5.8-6.4 0.6-0.8 0.6-1.9 1.2-2.6 2-2 4-4.1 6.2-5.9 1-0.8 2.2 0 3.7-0.3 0.5-1.8 2.5-3.4 4.4-2.9 0.8 0.2 2.4-1.9 2.9-2.1 0.8-0.3 0.4 0.8 0.4 1.5 1.9-1.5 4.5-2.3 6.9-3.2" fill="#61777f" fill-rule="nonzero" stroke="none" stroke-width="1" stroke-linecap="butt" stroke-linejoin="miter" stroke-miterlimit="10" stroke-dasharray="" stroke-dashoffset="0" font-family="none" font-weight="none" font-size="none" text-anchor="none" style="mix-blend-mode: normal" data-fill-palette-color="tertiary"></path></g><g transform="matrix(1,0,0,1,69.83692109372328,90)"><svg viewBox="0 0 180.32615781255345 180" height="180" width="180.32615781255345"><g><svg viewBox="0 0 180.32615781255345 180" height="180" width="180.32615781255345"><g><svg viewBox="0 0 192 191.65272758666904" height="180" width="180.32615781255345"><g transform="matrix(1,0,0,1,0,113.89452808173633)"><svg viewBox="0 0 192 77.75819950493272" height="77.75819950493272" width="192"><g id="textblocktransform"><svg viewBox="0 0 192 77.75819950493272" height="77.75819950493272" width="192" id="textblock"><g><svg viewBox="0 0 192 44.08251121076233" height="44.08251121076233" width="192"><g transform="matrix(1,0,0,1,0,0)"><svg width="192" viewBox="2.2 -31.05 167.23000000000002 38.4" height="44.08251121076233" data-palette-color="#61777f"><path d="M25.3-16.2L25.3-16.2Q25.3 0 12.5 0L12.5 0 2.2 0 2.2-31.05 12.7-31.05Q19.55-31.05 22.43-27.23 25.3-23.4 25.3-16.2ZM12.35-7.2Q15-7.2 15.78-9.08 16.55-10.95 16.55-15.38 16.55-19.8 15.73-21.65 14.9-23.5 12.2-23.5L12.2-23.5 10.7-23.5 10.7-7.2 12.35-7.2ZM27.4-12.08Q27.4-18.65 29.92-21.6 32.45-24.55 37.82-24.55 43.2-24.55 45.65-21.65 48.1-18.75 48.1-12.13 48.1-5.5 45.7-2.5 43.3 0.5 37.85 0.5 32.4 0.5 29.9-2.5 27.4-5.5 27.4-12.08ZM39.42-16.8Q39.1-17.8 37.8-17.8 36.5-17.8 36.15-16.8 35.8-15.8 35.8-12.6L35.8-12.6 35.8-11.4Q35.8-7.85 36.15-6.8 36.5-5.75 37.77-5.75 39.05-5.75 39.4-6.8 39.75-7.85 39.75-11.1L39.75-11.1 39.75-12.55Q39.75-15.8 39.42-16.8ZM57.95 2.2L57.95 2.2 63.1 2.2Q64 2.2 64 1.4L64 1.4 64 1.2Q64 0.45 63.1 0.45L63.1 0.45 57.95 0.45Q57.15 0.45 57.15 1.25L57.15 1.25 57.15 1.45Q57.15 2.2 57.95 2.2ZM59.95-24.55L59.95-24.55 71.75-24.55 71.75-18.95 68.15-18.95 68.15-18.7Q69.75-17.3 69.75-15.05L69.75-15.05Q69.75-7.05 60.7-7.05L60.7-7.05 58.3-7.05Q57.4-7.05 57.4-6.23 57.4-5.4 58.25-5.4L58.25-5.4 65.05-5.4Q70.8-5.4 70.8-0.4L70.8-0.4Q70.8 3.7 68.05 5.53 65.3 7.35 60.45 7.35 55.6 7.35 53.12 6.33 50.65 5.3 50.65 2.5L50.65 2.5Q50.65 0.95 52.6-0.1L52.6-0.1 52.6-0.3Q50.15-1.65 50.15-4.2L50.15-4.2Q50.15-7.2 54-8.75L54-8.75Q52.2-10.05 51.32-11.78 50.45-13.5 50.45-16.35L50.45-16.35Q50.45-20.3 53.02-22.43 55.6-24.55 59.95-24.55ZM62.15-14.95Q62.15-16.55 61.77-17.28 61.4-18 60.4-18 59.4-18 59.02-17.28 58.65-16.55 58.65-15.05L58.65-15.05Q58.65-12 60.45-12L60.45-12Q62.15-12 62.15-14.95L62.15-14.95ZM107.49-16.2L107.49-16.2Q107.49 0 94.69 0L94.69 0 84.39 0 84.39-31.05 94.89-31.05Q101.74-31.05 104.62-27.23 107.49-23.4 107.49-16.2ZM94.54-7.2Q97.19-7.2 97.97-9.08 98.74-10.95 98.74-15.38 98.74-19.8 97.92-21.65 97.09-23.5 94.39-23.5L94.39-23.5 92.89-23.5 92.89-7.2 94.54-7.2ZM128.04-17.7L128.04-17.7 127.79-7.35Q127.79-6.4 128.26-6.08 128.74-5.75 129.89-5.75L129.89-5.75 129.14 0.3Q126.24 0.5 125.94 0.5L125.94 0.5Q122.24 0.5 121.24-2.05L121.24-2.05 120.99-2.05Q119.14 0.5 115.29 0.5L115.29 0.5Q112.34 0.5 110.76-1.4 109.19-3.3 109.19-6.6L109.19-6.6Q109.19-10.75 111.76-12.35 114.34-13.95 119.89-14.45L119.89-14.45 119.89-15.65Q119.89-17.05 118.49-17.05L118.49-17.05Q116.09-17.05 110.99-15.6L110.99-15.6 109.74-22.9Q116.14-24.55 120.39-24.55 124.64-24.55 126.34-22.9 128.04-21.25 128.04-17.7ZM118.39-5.35L118.39-5.35Q120.24-5.35 120.24-7.3L120.24-7.3 120.24-9.75Q118.39-9.5 117.61-8.97 116.84-8.45 116.84-7.2L116.84-7.2Q116.84-5.35 118.39-5.35ZM144.34-23.95L152.54-23.95 146.34 0.7Q145.39 4.4 143.54 5.88 141.69 7.35 137.49 7.35L137.49 7.35 132.49 7.35 131.74 0.9 134.54 0.9Q136.24 0.9 136.24-0.45L136.24-0.45Q136.24-0.75 136.04-1.75L136.04-1.75 130.29-23.95 139.19-23.95 141.44-9 141.89-9 144.34-23.95ZM152.73-16.88Q152.73-20.5 154.96-22.53 157.18-24.55 161.08-24.55 164.98-24.55 168.98-23.55L168.98-23.55 168.13-16.6Q163.03-17.75 161.28-17.75L161.28-17.75Q160.23-17.75 160.23-16.9L160.23-16.9Q160.23-16.35 161.38-15.9L161.38-15.9Q165.38-14.45 167.41-12.6 169.43-10.75 169.43-7.05 169.43-3.35 167.53-1.43 165.63 0.5 161.71 0.5 157.78 0.5 153.88-0.5L153.88-0.5 154.43-7.25Q159.43-5.9 160.91-5.9 162.38-5.9 162.38-6.6 162.38-7.3 161.28-7.7L161.28-7.7Q156.83-9.4 154.78-11.33 152.73-13.25 152.73-16.88Z" opacity="1" transform="matrix(1,0,0,1,0,0)" fill="#61777f" class="wordmark-text-0" data-fill-palette-color="primary" id="text-0"></path></svg></g></svg></g><g transform="matrix(1,0,0,1,0,50.51520757668161)"><svg viewBox="0 0 192 27.24299192825112" height="27.24299192825112" width="192"><g transform="matrix(1,0,0,1,0,0)"><svg width="192" viewBox="3.05 -35.45 313.972949374745 44.550000000000004" height="27.24299192825112" data-palette-color="#61777f"><path d="M27.05-25.95L27.05-25.95Q27.05-20.75 22.55-18.05L22.55-18.05Q25-17.15 26.65-14.95 28.3-12.75 28.3-8.72 28.3-4.7 25.33-2.35 22.35 0 16.8 0L16.8 0 5 0Q4.15 0 3.6-0.58 3.05-1.15 3.05-2.1L3.05-2.1 3.05-34.1Q3.05-34.65 3.23-34.83 3.4-35 3.95-35L3.95-35 15.35-35Q27.05-35 27.05-25.95ZM13.7-26.9L12.65-26.9 12.65-20.35 12.9-20.35Q17.7-20.35 17.7-23.55L17.7-23.55Q17.7-25.3 16.78-26.1 15.85-26.9 13.7-26.9L13.7-26.9ZM13.7-14.45L12.65-14.45 12.65-7.95 13.55-7.95Q15.7-7.95 16.7-8.75 17.7-9.55 17.7-11.3 17.7-13.05 16.78-13.75 15.85-14.45 13.7-14.45L13.7-14.45ZM64.97-1.35L64.97-1.35Q61.82 0.5 56.87 0.5 51.92 0.5 48.52-2.88 45.12-6.25 45.12-12.23 45.12-18.2 48.4-21.85 51.67-25.5 56.67-25.5 61.67-25.5 64.4-22.95 67.12-20.4 67.12-16.75L67.12-16.75Q67.12-8.65 57.82-8.65L57.82-8.65 54.37-8.65Q54.37-7.15 55.2-6.58 56.02-6 57.62-6L57.62-6Q61.12-6 64.27-7.6L64.27-7.6Q64.32-7.65 64.72-6.9L64.72-6.9Q65.92-4.75 65.92-3.28 65.92-1.8 64.97-1.35ZM58.72-15.8L58.72-15.8Q58.72-17.9 56.67-17.9L56.67-17.9Q55.72-17.9 55.05-17.32 54.37-16.75 54.37-15.65L54.37-15.65 54.37-14.1 57.07-14.1Q58.72-14.1 58.72-15.8ZM109.31-35L126.96-35Q127.81-35 127.81-30.58 127.81-26.15 126.96-26.15L126.96-26.15 117.81-26.15 117.81-20.45 123.91-20.45Q124.76-20.45 124.76-16.57 124.76-12.7 123.96-12.7L123.96-12.7 117.81-12.7 117.81-0.65Q117.81 0.05 115.94 0.28 114.06 0.5 112.81 0.5L112.81 0.5 110.46 0.4Q108.01 0.1 108.01-0.6L108.01-0.6 108.01-33.7Q108.01-34.5 108.34-34.75 108.66-35 109.31-35L109.31-35ZM147.13-18.15L147.13-18.15Q145.73-20.65 145.73-22.23 145.73-23.8 146.58-24.25L146.58-24.25Q149.43-25.5 154.41-25.5 159.38-25.5 161.43-23.18 163.48-20.85 163.48-16.3L163.48-16.3 163.48-8.4 165.18-8.4Q166.03-8.4 166.51-7.4 166.98-6.4 166.98-4.65 166.98-2.9 166.11-1.2 165.23 0.5 163.73 0.5L163.73 0.5Q161.03 0.5 159.38-0.95L159.38-0.95Q158.63-1.55 158.23-2.4L158.23-2.4Q155.93 0.5 151.08 0.5L151.08 0.5Q147.43 0.5 144.93-2.1 142.43-4.7 142.43-8.25L142.43-8.25Q142.43-16.4 152.18-16.4L152.18-16.4 154.93-16.4 154.93-16.9Q154.93-18.2 154.51-18.57 154.08-18.95 152.53-18.95L152.53-18.95Q150.63-18.95 147.13-18.15ZM151.13-8.95L151.13-8.95Q151.13-7.85 151.73-7.28 152.33-6.7 153.26-6.7 154.18-6.7 154.93-7.45L154.93-7.45 154.93-11.3 153.53-11.3Q151.13-11.3 151.13-8.95ZM206.6-16.3L206.6-0.25Q206.6 0.1 202.33 0.1 198.05 0.1 198.05-0.35L198.05-0.35 198.05-14.9Q198.05-17.4 196.4-17.4L196.4-17.4Q195.55-17.4 194.15-16.3L194.15-16.3 194.15-0.3Q194.15 0.2 189.88 0.2 185.6 0.2 185.6-0.35L185.6-0.35 185.6-16.7 184.35-16.7Q182.7-16.7 182.7-20.15L182.7-20.15Q182.7-21.7 183.3-23.3L183.3-23.3Q184.1-25.5 185.9-25.5 187.7-25.5 189.38-24.55 191.05-23.6 191.4-22.75L191.4-22.75Q194.5-25.5 198.28-25.5 202.05-25.5 204.35-23.15L204.35-23.15Q207.05-25.5 210.85-25.5L210.85-25.5Q219.1-25.5 219.1-15.45L219.1-15.45 219.1-0.25Q219.1 0.1 214.83 0.1 210.55 0.1 210.55-0.35L210.55-0.35 210.55-14.9Q210.55-17.4 208.9-17.4L208.9-17.4Q208-17.4 206.6-16.3L206.6-16.3ZM246.62-24.85L246.62-0.3Q246.62 0.1 242.05 0.1 237.47 0.1 237.47-0.25L237.47-0.25 237.47-24.8Q237.47-25.15 242.05-25.15 246.62-25.15 246.62-24.85L246.62-24.85ZM246.62-35.15L246.62-27.8Q246.62-27.45 242.05-27.45 237.47-27.45 237.47-27.75L237.47-27.75 237.47-34.95Q237.47-35.45 242.05-35.45 246.62-35.45 246.62-35.15L246.62-35.15ZM274.34-34.65L274.34-0.4Q274.34 0.05 269.24 0.05L269.24 0.05Q265.24 0 265.24-0.35L265.24-0.35 265.24-34.4Q265.24-35.15 270.09-35.15L270.09-35.15Q274.34-35 274.34-34.65L274.34-34.65ZM299.71-2L291.21-24.75Q291.21-25.3 295.79-25.3 300.36-25.3 300.51-24.8L300.51-24.8 304.11-13 307.56-24.9Q307.76-25.3 310.66-25.3L310.66-25.3Q317.31-25.3 317.01-24.65L317.01-24.65 305.26 8.8Q305.21 9.1 302.54 9.1 299.86 9.1 297.56 8.93 295.26 8.75 295.36 8.5L295.36 8.5 299.71-2Z" opacity="1" transform="matrix(1,0,0,1,0,0)" fill="#61777f" class="slogan-text-1" data-fill-palette-color="secondary" id="text-1"></path></svg></g></svg></g></svg></g></svg></g><g transform="matrix(1,0,0,1,43.25970653880401,0)"><svg viewBox="0 0 105.48058692239198 107.46183171581704" height="107.46183171581704" width="105.48058692239198"><g><svg xmlns="http://www.w3.org/2000/svg" xmlns:xlink="http://www.w3.org/1999/xlink" version="1.1" x="0" y="0" viewBox="1.9994099655930515 0.999488249671361 95.50759003440696 97.30151175032864" enable-background="new 0 0 100 100" xml:space="preserve" height="107.46183171581704" width="105.48058692239198" class="icon-icon-0" data-fill-palette-color="accent" id="icon-0"><g fill="#61777f" data-fill-palette-color="accent"><path d="M33.257 77.713c-8.473 0-19.973-1.271-26.639-7.322-4.57-4.16-4.147-8.803-3.49-11.197 0.987-3.588 3.763-6.709 6.457-7.262 2.477-0.508 6.224-1.875 9.53-3.083 2.538-0.927 4.936-1.802 6.401-2.154 0.709-0.166 1.34-0.376 1.879-0.627l0.195-0.091 1.581 0.227 0.177 0.304c0.057 0.098 5.755 9.741 16.791 11.188 6.146 0.809 7.863 1.691 8.549 2.766 0.581 0.908 0.28 1.869 0.016 2.717-0.162 0.521-0.331 1.061-0.331 1.615 0 3.129 0 11.438-8.085 12.426l-0.096 0.012-0.097-0.016c-0.022-0.002-2.328-0.332-4.692-0.332-2.494 0-3.657 0.357-4.195 0.658l-0.149 0.086-0.172 0.006C35.778 77.682 34.559 77.713 33.257 77.713zM5.911 67.445c0.447 0.627 1.001 1.258 1.68 1.875 6.323 5.74 17.447 6.947 25.666 6.947 1.217 0 2.36-0.029 3.405-0.072 1.012-0.504 2.606-0.76 4.741-0.76 2.217 0 4.32 0.271 4.803 0.338 6.721-0.887 6.721-7.953 6.721-10.98 0-0.775 0.212-1.451 0.398-2.047 0.231-0.744 0.353-1.182 0.146-1.506-0.782-1.225-5.854-1.893-7.52-2.113-10.756-1.408-16.568-9.836-17.671-11.591l-0.475-0.068c-0.582 0.253-1.239 0.466-1.957 0.633-1.381 0.332-3.74 1.194-6.237 2.105-3.354 1.225-7.157 2.614-9.736 3.141-0.348 0.072-0.715 0.211-1.09 0.412 0.738 0.275 5.135 2.094 6.224 6.607 0.327 1.354 0.163 2.461-0.489 3.289-0.942 1.197-2.611 1.449-3.846 1.449-0.488 0-0.814-0.041-0.814-0.041l-0.123-0.016c-0.146 0.678-0.766 1.414-1.926 2.312-0.066 0.053-0.44 0.324-0.997 0.324H6.813C6.496 67.686 6.193 67.605 5.911 67.445zM8.474 55.193c-0.994 0.488-4.481 2.553-3.525 7.1 0.816 3.9 1.823 3.947 1.866 3.947 1.481-1.082 1.511-1.512 1.511-1.516-0.073-0.076-0.549-0.223-0.729-0.279-0.39-0.121-0.922-0.285-0.969-0.854-0.017-0.205 0.034-0.588 0.554-0.85 0.257-0.129 0.539-0.195 0.839-0.195 0.972 0 1.858 0.723 2.255 1.102 0.105 0.006 0.241 0.012 0.399 0.012 0.602 0 2.072-0.088 2.709-0.896 0.364-0.463 0.439-1.154 0.221-2.057C12.766 57.234 9.427 55.596 8.474 55.193z" fill="#61777f" data-fill-palette-color="accent"></path><path d="M74.357 44.968c-0.103 0-0.21-0.011-0.314-0.035-0.778-0.173-1.268-0.942-1.099-1.719 0.016-0.08 0.791-3.984-0.905-10.976-0.08-0.355-1.845-8.197-2.537-12.292-0.005-0.022-1.788-8.329-3.377-11.303-0.2-0.372-0.368-0.656-0.508-0.873-0.192 0.63-0.436 1.739-0.657 3.658-0.092 0.793-0.806 1.374-1.603 1.27-0.793-0.091-1.36-0.809-1.269-1.602 0.535-4.63 1.334-6.466 2.947-6.772 1.868-0.357 3.064 1.882 3.639 2.957 1.782 3.333 3.592 11.766 3.668 12.123 0.689 4.078 2.493 12.094 2.512 12.175 1.877 7.735 0.953 12.075 0.914 12.256C75.618 44.51 75.02 44.968 74.357 44.968z" fill="#61777f" data-fill-palette-color="accent"></path><path d="M44.539 98.301l-0.229-1.875c-1.301-10.674-6.53-16.572-8.006-18.047-8.163 0.299-22.364-0.365-30.173-7.453-4.855-4.42-4.402-9.369-3.699-11.924 1.07-3.895 4.017-7.166 7.008-7.777 2.423-0.498 6.144-1.855 9.426-3.055 2.672-0.974 4.976-1.816 6.48-2.178 0.667-0.155 1.249-0.35 1.743-0.58 1.036-0.47 1.344-0.906 1.347-0.911 4.277-6.933 9.307-12.372 14.959-16.19 3.457-2.344 7.111-4.063 10.858-5.109 1.522-0.419 3.059-0.73 4.571-0.925 1.11-0.129 2.005-0.167 2.637-0.172 0.738-7.538 0.511-13.108 0.51-13.167-0.176-3.086-0.072-6.758 2.315-7.595 2.551-0.901 5.284 2.472 6.342 3.96 3.401 5.053 6.125 13.717 6.237 14.083 2.324 8.936 6.036 14.24 6.074 14.292 9.194 11.221 14.171 40.724 14.379 41.976l0.189 1.141L44.539 98.301zM37.362 75.441l0.432 0.371c0.303 0.256 7.059 6.16 9.118 18.404L94.266 74.99c-1.017-5.568-5.839-30.053-13.624-39.56-0.226-0.313-4.118-5.875-6.554-15.25-0.008-0.019-2.693-8.562-5.837-13.233-0.966-1.352-2.363-2.679-2.981-2.844-0.158 0.266-0.602 1.322-0.411 4.69 0.013 0.281 0.27 6.528-0.662 14.975-0.112 0.999-0.231 2.034-0.38 3.087-1.292 9.362 0.481 14.406 0.5 14.456 0.271 0.749-0.113 1.579-0.861 1.853-0.745 0.275-1.574-0.104-1.851-0.852-0.085-0.228-2.053-5.691-0.652-15.854 0.069-0.491 0.133-0.977 0.19-1.456-0.507 0.013-1.171 0.052-1.964 0.144-1.361 0.176-2.765 0.46-4.151 0.842-3.441 0.961-6.811 2.549-10.013 4.718-5.312 3.589-10.057 8.733-14.104 15.291-0.089 0.184-0.713 1.181-2.612 2.043-0.661 0.309-1.435 0.568-2.284 0.766-1.334 0.321-3.677 1.176-6.154 2.082-3.379 1.233-7.206 2.631-9.84 3.17-1.646 0.338-3.95 2.617-4.8 5.711-0.527 1.918-0.856 5.637 2.857 9.018 7.24 6.574 21.102 7.004 28.716 6.682L37.362 75.441z" fill="#61777f" data-fill-palette-color="accent"></path><path d="M6.814 68.408L6.814 68.408c-2.804 0-3.696-4.268-3.989-5.67-1.17-5.57 2.817-8.762 5.091-9.672l0.497-0.199 0.508 0.174c0.227 0.078 5.535 1.949 6.792 7.156 0.476 1.969-0.077 3.211-0.625 3.906-1.12 1.426-3.019 1.725-4.413 1.725-0.171 0-0.325-0.004-0.454-0.012-0.41 0.824-1.218 1.537-1.967 2.117C8.116 68.041 7.589 68.408 6.814 68.408zM6.394 64.639c0.169 0.381 0.315 0.611 0.42 0.744 0.141-0.119 0.258-0.223 0.357-0.316C6.937 64.986 6.641 64.857 6.394 64.639zM8.493 55.994c-1.135 0.625-3.615 2.451-2.838 6.15 0.089 0.428 0.181 0.805 0.271 1.133 0.061-0.357 0.272-0.852 0.932-1.182 0.357-0.18 0.75-0.271 1.162-0.271 1.07 0 2.006 0.643 2.547 1.111 0.034 0.002 0.07 0.002 0.107 0.002 1.02 0 1.84-0.238 2.141-0.621 0.275-0.348 0.199-0.975 0.086-1.441C12.214 58.021 9.61 56.52 8.493 55.994z" fill="#61777f" data-fill-palette-color="accent"></path><path d="M36.856 78.355c-0.505 0-0.998-0.264-1.262-0.738-0.392-0.695-0.143-1.576 0.554-1.967 2.665-1.492 8.468-0.826 10.058-0.609 5.28-0.75 5.998-5.594 5.998-10.248 0-0.887 0.238-1.648 0.431-2.262 0.098-0.312 0.244-0.783 0.219-0.926-0.085-0.133-0.867-0.953-6.997-1.762-12.11-1.588-18.136-11.818-18.386-12.253-0.399-0.691-0.162-1.573 0.528-1.973 0.691-0.4 1.574-0.163 1.975 0.526 0.056 0.095 5.596 9.436 16.261 10.834 5.642 0.742 8.099 1.582 9.064 3.094 0.761 1.191 0.375 2.422 0.096 3.32-0.153 0.492-0.299 0.955-0.299 1.4 0 2.988 0 12.076-8.72 13.143l-0.192 0.023-0.19-0.025c-2.642-0.385-7.002-0.562-8.431 0.238C37.338 78.297 37.097 78.355 36.856 78.355z" fill="#61777f" data-fill-palette-color="accent"></path><path d="M61.612 69.211c1.243 0-0.106 3.734-0.844 3.734 0 0-1.808-0.117-2.53-0.963-0.723-0.844 0.604-3.012 0.604-3.012L61.612 69.211z" fill="#61777f" data-fill-palette-color="accent"></path><path d="M41.569 50.675c-0.432 0-0.859-0.193-1.145-0.562-2.379-3.082 0.432-7.625 0.761-8.133 0.435-0.67 1.33-0.861 1.999-0.429 0.67 0.434 0.861 1.327 0.43 1.997l0 0c-0.681 1.064-1.799 3.636-0.901 4.798 0.489 0.632 0.372 1.54-0.26 2.028C42.189 50.578 41.877 50.675 41.569 50.675z" fill="#61777f" data-fill-palette-color="accent"></path><path d="M42.421 51.428c-1.616 0-3.636-0.44-4.375-1.161-0.397-0.385-0.576-0.902-0.494-1.419 0.125-0.79 0.875-1.33 1.654-1.2 0.37 0.059 0.684 0.252 0.901 0.522 0.57 0.211 2.035 0.494 2.937 0.322 0.757-0.146 2.303-0.726 3.595-1.242-2.578-3.082-4.407-3.517-4.428-3.521l-0.524-0.115-0.084-0.102c-0.113 0.061-0.239 0.143-0.332 0.219-0.614 0.505-1.523 0.42-2.032-0.191-0.507-0.611-0.431-1.514 0.177-2.026 0.313-0.264 1.433-1.116 2.66-0.972 0.427 0.048 0.818 0.212 1.147 0.473 1.102 0.361 3.763 1.637 6.889 6.006l1.044 1.458-1.646 0.711c-0.428 0.185-4.224 1.814-5.924 2.143C43.247 51.396 42.848 51.428 42.421 51.428z" fill="#61777f" data-fill-palette-color="accent"></path><path d="M42.252 50.22c-0.687 0-1.295-0.489-1.422-1.188-0.071-0.387 0.021-0.766 0.226-1.068 0.142-0.706 0.257-2.855 0.279-4.608 0.012-0.798 0.657-1.427 1.466-1.426 0.799 0.011 1.438 0.667 1.426 1.465-0.082 5.974-0.511 6.583-1.717 6.801C42.424 50.213 42.338 50.22 42.252 50.22z" fill="#61777f" data-fill-palette-color="accent"></path><path d="M43.812 30.38c-0.604 0-1.169-0.382-1.371-0.988-0.973-2.911-0.326-14.522 0.148-21.185 0.057-0.797 0.754-1.391 1.545-1.34 0.796 0.057 1.395 0.749 1.338 1.545-0.744 10.486-0.858 18.362-0.289 20.063 0.253 0.757-0.155 1.576-0.913 1.829C44.118 30.356 43.964 30.38 43.812 30.38z" fill="#61777f" data-fill-palette-color="accent"></path><path d="M58.967 24.801c-0.574 0-1.118-0.345-1.344-0.909-0.018-0.044-1.766-4.407-2.66-6.337-0.517-0.803-4.202-6.563-5.394-9.627-1.175-1.862-2.79-3.669-3.541-3.99-0.136 0.267-0.393 1.008-0.435 2.802L45.472 8.39c-0.059 0.796-0.759 1.389-1.549 1.334-0.796-0.06-1.394-0.752-1.334-1.549l0.119-1.58c0.045-2.041 0.358-4.925 2.501-5.508 2.628-0.713 5.444 3.096 6.889 5.431l0.126 0.254c1.08 2.89 5.179 9.23 5.222 9.294l0.094 0.172c0.92 1.958 2.692 6.39 2.77 6.578 0.296 0.742-0.065 1.583-0.806 1.88C59.325 24.767 59.145 24.801 58.967 24.801z" fill="#61777f" data-fill-palette-color="accent"></path><path d="M54.516 25.593c-0.778 0-1.419-0.618-1.445-1.4l0 0c-0.001-0.035-0.147-3.494-2.45-6.596-0.104-0.152-1.593-2.404-2.092-5.658-0.152-0.699-0.802-2.956-1.787-4.008l-0.165-0.214c-0.2-0.312-0.497-0.655-0.734-0.868-0.112 0.271-0.26 0.762-0.375 1.606-0.085 0.72-0.695 1.287-1.437 1.287-0.798 0-1.445-0.633-1.445-1.432l0.013-0.222c0.222-1.637 0.729-3.861 2.566-4.263 1.833-0.398 3.281 1.477 3.781 2.229 1.646 1.845 2.351 5.005 2.427 5.365 0.411 2.663 1.599 4.492 1.611 4.51 2.822 3.802 2.974 8 2.978 8.176 0.022 0.799-0.605 1.463-1.405 1.486C54.542 25.593 54.528 25.593 54.516 25.593z" fill="#61777f" data-fill-palette-color="accent"></path></g></svg></g></svg></g><g></g></svg></g></svg></g></svg></g></svg></g><defs></defs></svg><rect width="320" height="360" fill="none" stroke="none" visibility="hidden"></rect></g></svg></g></svg>